# xmcd CD database file
#
# Track frame offsets:
#	150
#	13046
#	39203
#	56482
#	78571
#	95017
#	110970
#	134819
#	162970
#	189883
#	209380
#
# Disc length: 3027 seconds
#
# Revision: 0
# Processed by: cddbd v1.5.2PL0 Copyright (c) Steve Scherf et al.
# Submitted via: CDex 1.82
#
DISCID=970bd10b
DTITLE=Filipowicz, Paul - Unfiltered
DYEAR=2018
DGENRE=Blues
TTITLE0=Everything Gonna Be Alright
TTITLE1=Brand New Hat
TTITLE2=Unfiltered
TTITLE3=Canal Street
TTITLE4=Howlin' For My Darling
TTITLE5=Every Thing's Gonna Be Alright
TTITLE6=I Found A New Love
TTITLE7=My Woman
TTITLE8=Tin Pan Alley
TTITLE9=Reconsider Baby
TTITLE10=Riding High
EXTD=YEAR: 2018
EXTT0=
EXTT1=
EXTT2=
EXTT3=
EXTT4=
EXTT5=
EXTT6=
EXTT7=
EXTT8=
EXTT9=
EXTT10=
PLAYORDER=
